<?xml version="1.0" encoding="UTF-8" standalone="no"?>
<svg width="153px" height="20px" viewBox="0 0 153 20" version="1.1" xmlns="http://www.w3.org/2000/svg" xmlns:xlink="http://www.w3.org/1999/xlink">
    <!-- Generator: Sketch 41.2 (35397) - http://www.bohemiancoding.com/sketch -->
    <title>logo</title>
    <desc>Created with Sketch.</desc>
    <defs></defs>
    <g id="Symbols" stroke="none" stroke-width="1" fill="none" fill-rule="evenodd">
        <g id="logo" fill="#222222">
            <path d="M7.62682277,17.8929789 L1.27608319,0.79939949 C1.12770142,0.443283252 0.919966949,0.23554878 0.534174357,0.23554878 C0.207734472,0.23554878 0,0.383930546 0,0.621341371 C0,0.710370431 0.0296763532,0.829075843 0.0890290596,1.00713396 L6.88491394,19.2580912 C7.00361935,19.5845311 7.21135382,19.8219419 7.56747006,19.8219419 C7.9235863,19.8219419 8.13132077,19.5845311 8.25002619,19.2580912 L15.2833219,1.00713396 C15.3426746,0.858752197 15.3723509,0.740046784 15.3723509,0.651017724 C15.3723509,0.413606899 15.2239692,0.23554878 14.8678529,0.23554878 C14.4820604,0.23554878 14.3336786,0.443283252 14.1852968,0.79939949 L7.62682277,17.8929789 Z M22.7007615,0.918104903 C22.7007615,0.740046784 22.7007615,0.561988665 22.6117324,0.443283252 C22.5227034,0.294901486 22.3149689,0.23554878 22.1072344,0.23554878 C21.8994999,0.23554878 21.6917655,0.294901486 21.6027364,0.443283252 C21.5137074,0.561988665 21.5137074,0.740046784 21.5137074,0.918104903 L21.5137074,19.1393858 C21.5137074,19.3174439 21.5137074,19.495502 21.6027364,19.6142074 C21.6917655,19.7625892 21.8994999,19.8219419 22.1072344,19.8219419 C22.3149689,19.8219419 22.5227034,19.7625892 22.6117324,19.6142074 C22.7007615,19.495502 22.7007615,19.3174439 22.7007615,19.1393858 L22.7007615,0.918104903 Z M30.949139,4.44959093 C30.949139,2.46127527 32.6703674,1.09616302 35.0741521,1.09616302 C37.418584,1.09616302 38.3385509,2.37224621 38.9617543,2.37224621 C39.2881942,2.37224621 39.4662523,2.04580632 39.4662523,1.83807185 C39.4662523,1.21486843 37.5372894,0.0278143075 35.0147993,0.0278143075 C31.8097532,0.0278143075 29.7620848,1.92710091 29.7620848,4.47926729 C29.7620848,8.07010602 33.7980689,9.34618921 35.994119,10.7113015 C37.4482603,11.601592 38.7243435,12.9073516 38.7243435,14.8956673 C38.7243435,17.4181573 36.7063515,18.9316513 34.1245087,18.9316513 C31.3052552,18.9316513 30.4149646,17.0917174 29.7324085,17.0917174 C29.4653213,17.0917174 29.1685578,17.3588046 29.1685578,17.6555681 C29.1685578,17.982008 29.6433794,18.486506 30.2962592,18.9019749 C31.3942843,19.6142074 32.7593965,20 34.1541851,20 C37.1514968,20 39.9113976,18.2194188 39.9113976,14.8659909 C39.9113976,12.3435009 38.3682273,10.7409778 36.4392643,9.61327639 C34.3619196,8.39654591 30.949139,7.23916813 30.949139,4.44959093 L30.949139,4.44959093 Z M47.7146298,0.918104903 C47.7146298,0.740046784 47.7146298,0.561988665 47.6256007,0.443283252 C47.5365717,0.294901486 47.3288372,0.23554878 47.1211027,0.23554878 C46.9133683,0.23554878 46.7056338,0.294901486 46.6166047,0.443283252 C46.5275757,0.561988665 46.5275757,0.740046784 46.5275757,0.918104903 L46.5275757,19.1393858 C46.5275757,19.3174439 46.5275757,19.495502 46.6166047,19.6142074 C46.7056338,19.7625892 46.9133683,19.8219419 47.1211027,19.8219419 C47.3288372,19.8219419 47.5365717,19.7625892 47.6256007,19.6142074 C47.7146298,19.495502 47.7146298,19.3174439 47.7146298,19.1393858 L47.7146298,0.918104903 Z M79.9266626,2.34256986 L92.7765235,19.3174439 C93.0436107,19.6735601 93.2810215,19.8219419 93.6371378,19.8219419 C94.0526067,19.8219419 94.2009885,19.6142074 94.2009885,19.2284148 L94.2009885,0.918104903 C94.2009885,0.740046784 94.2009885,0.561988665 94.1119594,0.443283252 C94.0229304,0.294901486 93.8448723,0.23554878 93.6371378,0.23554878 C93.4294033,0.23554878 93.2513452,0.294901486 93.1623161,0.443283252 C93.0732871,0.561988665 93.0732871,0.740046784 93.0732871,0.918104903 L93.0732871,17.7149208 L80.2234261,0.740046784 C79.956339,0.383930546 79.7189281,0.23554878 79.3628119,0.23554878 C78.947343,0.23554878 78.7989612,0.443283252 78.7989612,0.829075843 L78.7989612,19.1393858 C78.7989612,19.3174439 78.7989612,19.495502 78.8879903,19.6142074 C78.9770193,19.7625892 79.1550774,19.8219419 79.3628119,19.8219419 C79.5705464,19.8219419 79.7486045,19.7625892 79.8376336,19.6142074 C79.9266626,19.495502 79.9266626,19.3174439 79.9266626,19.1393858 L79.9266626,2.34256986 Z M114.349584,19.2580912 C114.497965,19.6735601 114.7057,19.8219419 115.061816,19.8219419 C115.477285,19.8219419 115.625667,19.6438838 115.625667,19.4361493 C115.625667,19.3174439 115.566314,19.1393858 115.506961,18.991004 L108.740753,0.79939949 C108.622047,0.472959605 108.414313,0.23554878 108.058197,0.23554878 C107.70208,0.23554878 107.494346,0.472959605 107.375641,0.79939949 L100.372021,18.991004 C100.282992,19.1987385 100.253316,19.3471202 100.253316,19.4361493 C100.253316,19.6735601 100.401698,19.8219419 100.757814,19.8219419 C101.143606,19.8219419 101.291988,19.6142074 101.44037,19.2580912 L104.259624,11.8983556 L111.619359,11.8983556 L114.349584,19.2580912 Z M107.998844,2.16451174 L111.233567,10.8893596 L104.645416,10.8893596 L107.998844,2.16451174 Z M122.865048,10.8893596 C122.865048,10.8893596 123.280517,10.9487123 124.111455,10.9487123 C125.417215,10.9487123 126.366858,10.8003305 126.366858,10.8003305 C126.366858,10.8003305 127.168119,12.0467373 128.05841,13.2931442 L132.302129,19.2284148 C132.539539,19.5845311 132.747274,19.8219419 133.251772,19.8219419 C133.904652,19.8219419 133.934328,19.4361493 133.637564,19.0206803 L127.553912,10.5629197 C130.551224,9.7319818 131.88666,7.83269519 131.88666,5.33988153 C131.88666,3.2625368 130.966693,1.92710091 129.423522,1.12583938 C128.117763,0.443283252 126.574592,0.23554878 125.001746,0.23554878 C124.170808,0.23554878 123.280517,0.294901486 122.68699,0.383930546 C121.677994,0.532312312 121.677994,0.829075843 121.677994,1.45227926 L121.677994,19.1393858 C121.677994,19.3174439 121.677994,19.495502 121.767023,19.6142074 C121.856052,19.7625892 122.063787,19.8219419 122.271521,19.8219419 C122.479256,19.8219419 122.68699,19.7625892 122.776019,19.6142074 C122.865048,19.495502 122.865048,19.3174439 122.865048,19.1393858 L122.865048,10.8893596 Z M122.865048,1.39292655 C122.865048,1.39292655 123.785015,1.24454479 124.912717,1.24454479 C127.791323,1.24454479 130.5809,2.22386444 130.5809,5.48826329 C130.5809,8.18881143 128.622261,9.93971627 124.200484,9.93971627 C123.369546,9.93971627 122.865048,9.88036356 122.865048,9.88036356 L122.865048,1.39292655 Z M145.031635,10.8596832 L139.037012,0.829075843 C138.799601,0.413606899 138.591867,0.23554878 138.146721,0.23554878 C137.790605,0.23554878 137.582871,0.354254193 137.582871,0.591665018 C137.582871,0.740046784 137.6719,0.88842855 137.820282,1.15551573 L144.378756,12.017061 L144.378756,19.1393858 C144.378756,19.3174439 144.378756,19.495502 144.467785,19.6142074 C144.556814,19.7625892 144.764548,19.8219419 144.972283,19.8219419 C145.180017,19.8219419 145.387752,19.7625892 145.476781,19.6142074 C145.56581,19.495502 145.56581,19.3174439 145.56581,19.1393858 L145.56581,12.017061 L152.302342,1.15551573 C152.450724,0.918104903 152.539753,0.740046784 152.539753,0.591665018 C152.539753,0.354254193 152.361695,0.23554878 152.064931,0.23554878 C151.619786,0.23554878 151.382375,0.502635958 151.17464,0.829075843 L145.031635,10.8596832 Z M56.1781262,8.51583321 C54.609809,9.29509933 53.3113905,10.2493977 52.2734991,11.1792568 C53.0450062,15.9288699 57.7129403,19.5812725 63.3587884,19.5812725 C65.3139134,19.5812725 67.1516607,19.1422952 68.7516066,18.3725721 C66.8599733,17.6868737 65.5067316,15.8890686 65.5067316,13.7723882 C65.5067316,11.0661375 67.7151209,8.87171669 70.4398787,8.87171669 C70.894864,8.87171669 71.3339179,8.93805207 71.7525887,9.05303339 C71.4430956,8.87264771 71.124231,8.69714991 70.7913092,8.53072957 C70.7913092,8.53072957 63.8493854,4.82432763 56.1781262,8.51583321 Z M62.6193787,4.17889604 C62.9031002,4.15166362 63.1893989,4.13513797 63.4806177,4.13513797 L63.489052,4.13513797 C63.7760536,4.13513797 64.0597751,4.15166362 64.3409195,4.17889604 C68.4395363,4.35555762 71.7226,5.74580749 74.2215051,7.40326091 C73.0025099,3.1501158 68.6018972,0 63.3587884,0 C58.0332107,0 53.5791805,3.25066626 52.4426543,7.60506011 C54.9767025,5.86009054 58.3558239,4.36277305 62.6193787,4.17889604 Z"></path>
        </g>
    </g>
</svg>